# xmcd
#
# Track frame offsets:
#	150
#	14822
#	30296
#	41187
#	52199
#	65177
#	80726
#	99668
#	112957
#	132198
#	150812
#	168867
#	182149
#	196846
#	214088
#	227280
#	246192
#	263628
#	276702
#	292866
#
# Disc length: 4155 seconds
#
# Revision: 0
# Processed by: cddbd v1.5.1PL2 Copyright (c) Steve Scherf et al.
# Submitted via: EasyCDDAExtractor 7.1.3.1
#
DISCID=1b103914
DTITLE=Various Artist - Soul - The  Musicotheque
DYEAR=2005
DGENRE=Soul
TTITLE0=Supremes - Love child
TTITLE1=Eddie Floyd - Knock on wood
TTITLE2=Rufus Thomas - Walking the dog
TTITLE3=Brook Benton - Endlessly
TTITLE4=Lloyd Price - Stagger lee
TTITLE5=Kim Weston - Emotion
TTITLE6=Edwin Starr - 25 miles
TTITLE7=Percy Sledge - When a man loves a woman
TTITLE8=Eddie Floyd - California girl
TTITLE9=Originals - Please mr postman
TTITLE10=Chuck Jackson - All over the world
TTITLE11=Sam and Dave - Soul man
TTITLE12=Barbara Pennington - Fan the flame
TTITLE13=Brook Benton - Rainy night in georgia
TTITLE14=Sam and Dave - I thank you
TTITLE15=Marv Johnson - Better love next time
TTITLE16=Marvin Gaye - I heard it through the grapevine
TTITLE17=Marvelettes - When you're young and in love
TTITLE18=Miracles - Love Machine
TTITLE19=Thelma Houston - Don't leave me this way
EXTD=
EXTT0=
EXTT1=
EXTT2=
EXTT3=
EXTT4=
EXTT5=
EXTT6=
EXTT7=
EXTT8=
EXTT9=
EXTT10=
EXTT11=
EXTT12=
EXTT13=
EXTT14=
EXTT15=
EXTT16=
EXTT17=
EXTT18=
EXTT19=
PLAYORDER=
